# xmcd CD database file
#
# Track frame offsets:
#	150
#	22927
#	50785
#	94202
#	131290
#	167982
#	194170
#	218735
#	250405
#
# Disc length: 3560 seconds
#
# Revision: 0
# Processed by: cddbd v1.5.2PL0 Copyright (c) Steve Scherf et al.
# Submitted via: CDex 1.70beta2
#
DISCID=830de609
DTITLE=Page One - Page One
DYEAR=1994
DGENRE=Jazz
TTITLE0=After Dark
TTITLE1=Diva Nova
TTITLE2=No misunderstanding, Baby
TTITLE3=Pictures
TTITLE4=Gingerbread Boy
TTITLE5=Pandela's Box
TTITLE6=The Preacher
TTITLE7=A view in my darkness
TTITLE8=Rhythm pages
EXTD=YEAR: 1994
EXTT0=
EXTT1=
EXTT2=
EXTT3=
EXTT4=
EXTT5=
EXTT6=
EXTT7=
EXTT8=
PLAYORDER=
